<mxfile host="app.diagrams.net" agent="Mozilla/5.0 (Windows NT 10.0; Win64; x64) AppleWebKit/537.36 (KHTML, like Gecko) Chrome/134.0.0.0 Safari/537.36" version="26.1.1">
  <diagram name="软件架构和标准体系技术路线图" id="5ruRkja_4Q2_cKYJZjN-">
    <mxGraphModel dx="1644" dy="853" grid="1" gridSize="10" guides="1" tooltips="1" connect="1" arrows="1" fold="1" page="1" pageScale="1" pageWidth="827" pageHeight="1169" math="0" shadow="0">
      <root>
        <mxCell id="0" />
        <mxCell id="1" parent="0" />
        <mxCell id="-YfhJL4qU9Dbgszy67ls-17" value="&lt;div style=&quot;text-align: start;&quot;&gt;&lt;span style=&quot;background-color: transparent; white-space-collapse: preserve;&quot;&gt;系统构建&lt;/span&gt;&lt;/div&gt;" style="swimlane;whiteSpace=wrap;html=1;startSize=30;fontSize=16;fontStyle=1;fontFamily=Helvetica;fillColor=#CCE5FF;fontColor=default;labelBackgroundColor=none;strokeWidth=1.5;" vertex="1" parent="1">
          <mxGeometry x="160" y="400" width="740" height="380" as="geometry" />
        </mxCell>
        <mxCell id="-YfhJL4qU9Dbgszy67ls-18" value="&lt;div style=&quot;text-align: start;&quot;&gt;&lt;span style=&quot;background-color: transparent; font-size: 11.9px; white-space-collapse: preserve;&quot;&gt;&lt;font color=&quot;#383a42&quot;&gt;&lt;b&gt;知识资产库&lt;/b&gt;&lt;/font&gt;&lt;/span&gt;&lt;/div&gt;" style="swimlane;whiteSpace=wrap;html=1;fontStyle=0;startSize=20;strokeWidth=1.5;" vertex="1" parent="-YfhJL4qU9Dbgszy67ls-17">
          <mxGeometry x="20" y="50" width="700" height="160" as="geometry" />
        </mxCell>
        <mxCell id="-YfhJL4qU9Dbgszy67ls-51" value="BIM数据&amp;nbsp;&amp;nbsp;" style="strokeWidth=1.5;html=1;shape=mxgraph.flowchart.direct_data;whiteSpace=wrap;align=center;" vertex="1" parent="-YfhJL4qU9Dbgszy67ls-18">
          <mxGeometry x="120" y="100" width="80" height="40" as="geometry" />
        </mxCell>
        <mxCell id="-YfhJL4qU9Dbgszy67ls-52" value="GIS数据&amp;nbsp;&amp;nbsp;" style="strokeWidth=1.5;html=1;shape=mxgraph.flowchart.direct_data;whiteSpace=wrap;" vertex="1" parent="-YfhJL4qU9Dbgszy67ls-18">
          <mxGeometry x="247" y="100" width="80" height="40" as="geometry" />
        </mxCell>
        <mxCell id="-YfhJL4qU9Dbgszy67ls-53" value="业务数据&amp;nbsp;&amp;nbsp;" style="strokeWidth=1.5;html=1;shape=mxgraph.flowchart.direct_data;whiteSpace=wrap;" vertex="1" parent="-YfhJL4qU9Dbgszy67ls-18">
          <mxGeometry x="373" y="100" width="80" height="40" as="geometry" />
        </mxCell>
        <mxCell id="-YfhJL4qU9Dbgszy67ls-54" value="文档/标准&amp;nbsp;&amp;nbsp;" style="strokeWidth=1.5;html=1;shape=mxgraph.flowchart.direct_data;whiteSpace=wrap;" vertex="1" parent="-YfhJL4qU9Dbgszy67ls-18">
          <mxGeometry x="500" y="100" width="80" height="40" as="geometry" />
        </mxCell>
        <mxCell id="-YfhJL4qU9Dbgszy67ls-55" value="&lt;div style=&quot;text-align: start;&quot;&gt;&lt;font color=&quot;#383a42&quot;&gt;&lt;span style=&quot;font-size: 11.9px; white-space-collapse: preserve; background-color: rgb(255, 255, 255);&quot;&gt;多模态数据采集&lt;/span&gt;&lt;/font&gt;&lt;/div&gt;" style="rounded=1;whiteSpace=wrap;html=1;fontFamily=Helvetica;strokeWidth=1.5;" vertex="1" parent="-YfhJL4qU9Dbgszy67ls-18">
          <mxGeometry x="30" y="40" width="120" height="30" as="geometry" />
        </mxCell>
        <mxCell id="-YfhJL4qU9Dbgszy67ls-56" value="&lt;div style=&quot;text-align: start;&quot;&gt;&lt;font color=&quot;#383a42&quot;&gt;&lt;span style=&quot;font-size: 11.9px; white-space-collapse: preserve;&quot;&gt;知识抽取（BiLSTM+CRF实体识别）&lt;/span&gt;&lt;/font&gt;&lt;/div&gt;" style="rounded=1;whiteSpace=wrap;html=1;fontFamily=Helvetica;strokeWidth=1.5;" vertex="1" parent="-YfhJL4qU9Dbgszy67ls-18">
          <mxGeometry x="180" y="40" width="200" height="30" as="geometry" />
        </mxCell>
        <mxCell id="-YfhJL4qU9Dbgszy67ls-64" value="&lt;div style=&quot;text-align: start;&quot;&gt;&lt;font color=&quot;#383a42&quot;&gt;&lt;span style=&quot;font-size: 11.9px; white-space-collapse: preserve; background-color: rgb(255, 255, 255);&quot;&gt;知识共享&lt;/span&gt;&lt;/font&gt;&lt;/div&gt;" style="rounded=1;whiteSpace=wrap;html=1;fontFamily=Helvetica;strokeWidth=1.5;" vertex="1" parent="-YfhJL4qU9Dbgszy67ls-18">
          <mxGeometry x="410" y="40" width="110" height="30" as="geometry" />
        </mxCell>
        <mxCell id="-YfhJL4qU9Dbgszy67ls-65" value="&lt;div style=&quot;text-align: start;&quot;&gt;&lt;font color=&quot;#383a42&quot;&gt;&lt;span style=&quot;font-size: 11.9px; white-space-collapse: preserve; background-color: rgb(255, 255, 255);&quot;&gt;知识图谱构建&lt;/span&gt;&lt;/font&gt;&lt;/div&gt;" style="rounded=1;whiteSpace=wrap;html=1;fontFamily=Helvetica;strokeWidth=1.5;" vertex="1" parent="-YfhJL4qU9Dbgszy67ls-18">
          <mxGeometry x="550" y="40" width="120" height="30" as="geometry" />
        </mxCell>
        <mxCell id="-YfhJL4qU9Dbgszy67ls-21" value="&lt;div style=&quot;text-align: start;&quot;&gt;&lt;span style=&quot;background-color: transparent; font-size: 11.9px; white-space-collapse: preserve;&quot;&gt;&lt;font color=&quot;#383a42&quot;&gt;&lt;b&gt;人机协同管理&lt;/b&gt;&lt;/font&gt;&lt;/span&gt;&lt;/div&gt;" style="swimlane;whiteSpace=wrap;html=1;fontStyle=0;startSize=20;strokeWidth=1.5;" vertex="1" parent="-YfhJL4qU9Dbgszy67ls-17">
          <mxGeometry x="20" y="240" width="700" height="120" as="geometry" />
        </mxCell>
        <mxCell id="-YfhJL4qU9Dbgszy67ls-22" value="&lt;div style=&quot;text-align: start;&quot;&gt;&lt;font color=&quot;#383a42&quot;&gt;&lt;span style=&quot;font-size: 11.9px; white-space-collapse: preserve; background-color: rgb(255, 255, 255);&quot;&gt;智能问答&lt;/span&gt;&lt;/font&gt;&lt;/div&gt;" style="rounded=1;whiteSpace=wrap;html=1;fontFamily=Helvetica;strokeWidth=1.5;" vertex="1" parent="-YfhJL4qU9Dbgszy67ls-21">
          <mxGeometry x="30" y="50" width="120" height="40" as="geometry" />
        </mxCell>
        <mxCell id="-YfhJL4qU9Dbgszy67ls-23" value="&lt;div style=&quot;text-align: start;&quot;&gt;&lt;font color=&quot;#383a42&quot;&gt;&lt;span style=&quot;font-size: 11.9px; white-space-collapse: preserve; background-color: rgb(255, 255, 255);&quot;&gt;协同事项管理&lt;/span&gt;&lt;/font&gt;&lt;/div&gt;" style="rounded=1;whiteSpace=wrap;html=1;fontFamily=Helvetica;strokeWidth=1.5;" vertex="1" parent="-YfhJL4qU9Dbgszy67ls-21">
          <mxGeometry x="370" y="50" width="120" height="40" as="geometry" />
        </mxCell>
        <mxCell id="-YfhJL4qU9Dbgszy67ls-24" value="&lt;div style=&quot;text-align: start;&quot;&gt;&lt;font color=&quot;#383a42&quot;&gt;&lt;span style=&quot;font-size: 11.9px; white-space-collapse: preserve; background-color: rgb(255, 255, 255);&quot;&gt;智能会议管理&lt;/span&gt;&lt;/font&gt;&lt;/div&gt;" style="rounded=1;whiteSpace=wrap;html=1;fontFamily=Helvetica;strokeWidth=1.5;" vertex="1" parent="-YfhJL4qU9Dbgszy67ls-21">
          <mxGeometry x="540" y="50" width="120" height="40" as="geometry" />
        </mxCell>
        <mxCell id="-YfhJL4qU9Dbgszy67ls-72" value="&lt;div style=&quot;text-align: start;&quot;&gt;&lt;font color=&quot;#383a42&quot;&gt;&lt;span style=&quot;font-size: 11.9px; white-space-collapse: preserve; background-color: rgb(255, 255, 255);&quot;&gt;团队协作&lt;/span&gt;&lt;/font&gt;&lt;/div&gt;" style="rounded=1;whiteSpace=wrap;html=1;fontFamily=Helvetica;strokeWidth=1.5;" vertex="1" parent="-YfhJL4qU9Dbgszy67ls-21">
          <mxGeometry x="200" y="50" width="120" height="40" as="geometry" />
        </mxCell>
        <mxCell id="-YfhJL4qU9Dbgszy67ls-38" value="&lt;span style=&quot;text-align: start; white-space-collapse: preserve;&quot;&gt;系统架构设计&lt;/span&gt;" style="swimlane;whiteSpace=wrap;html=1;startSize=20;fontSize=14;fontStyle=1;fontFamily=Helvetica;fillColor=none;fontColor=default;labelBackgroundColor=none;strokeWidth=1.5;" vertex="1" parent="1">
          <mxGeometry x="160" y="270" width="740" height="90" as="geometry" />
        </mxCell>
        <mxCell id="-YfhJL4qU9Dbgszy67ls-43" value="&lt;div style=&quot;text-align: start;&quot;&gt;&lt;font color=&quot;#383a42&quot;&gt;&lt;span style=&quot;font-size: 11.9px; white-space-collapse: preserve; background-color: rgb(255, 255, 255);&quot;&gt;软件逻辑架构设计&lt;/span&gt;&lt;/font&gt;&lt;/div&gt;" style="rounded=1;whiteSpace=wrap;html=1;fontFamily=Helvetica;strokeWidth=1.5;" vertex="1" parent="-YfhJL4qU9Dbgszy67ls-38">
          <mxGeometry x="30" y="40" width="120" height="30" as="geometry" />
        </mxCell>
        <mxCell id="-YfhJL4qU9Dbgszy67ls-46" value="&lt;div style=&quot;text-align: start;&quot;&gt;&lt;font color=&quot;#383a42&quot;&gt;&lt;span style=&quot;font-size: 11.9px; white-space-collapse: preserve; background-color: rgb(255, 255, 255);&quot;&gt;软件运行架构设计&lt;/span&gt;&lt;/font&gt;&lt;/div&gt;" style="rounded=1;whiteSpace=wrap;html=1;fontFamily=Helvetica;strokeWidth=1.5;" vertex="1" parent="-YfhJL4qU9Dbgszy67ls-38">
          <mxGeometry x="170" y="40" width="120" height="30" as="geometry" />
        </mxCell>
        <mxCell id="-YfhJL4qU9Dbgszy67ls-47" value="&lt;div style=&quot;text-align: start;&quot;&gt;&lt;font color=&quot;#383a42&quot;&gt;&lt;span style=&quot;font-size: 11.9px; white-space-collapse: preserve; background-color: rgb(255, 255, 255);&quot;&gt;软件数据架构设计&lt;/span&gt;&lt;/font&gt;&lt;/div&gt;" style="rounded=1;whiteSpace=wrap;html=1;fontFamily=Helvetica;strokeWidth=1.5;" vertex="1" parent="-YfhJL4qU9Dbgszy67ls-38">
          <mxGeometry x="310" y="40" width="120" height="30" as="geometry" />
        </mxCell>
        <mxCell id="-YfhJL4qU9Dbgszy67ls-48" value="&lt;div style=&quot;text-align: start;&quot;&gt;&lt;font color=&quot;#383a42&quot;&gt;&lt;span style=&quot;font-size: 11.9px; white-space-collapse: preserve; background-color: rgb(255, 255, 255);&quot;&gt;软件开发架构设计&lt;/span&gt;&lt;/font&gt;&lt;/div&gt;" style="rounded=1;whiteSpace=wrap;html=1;fontFamily=Helvetica;strokeWidth=1.5;" vertex="1" parent="-YfhJL4qU9Dbgszy67ls-38">
          <mxGeometry x="450" y="40" width="120" height="30" as="geometry" />
        </mxCell>
        <mxCell id="-YfhJL4qU9Dbgszy67ls-49" value="&lt;div style=&quot;text-align: start;&quot;&gt;&lt;font color=&quot;#383a42&quot;&gt;&lt;span style=&quot;font-size: 11.9px; white-space-collapse: preserve; background-color: rgb(255, 255, 255);&quot;&gt;软件安全架构设计&lt;/span&gt;&lt;/font&gt;&lt;/div&gt;" style="rounded=1;whiteSpace=wrap;html=1;fontFamily=Helvetica;strokeWidth=1.5;" vertex="1" parent="-YfhJL4qU9Dbgszy67ls-38">
          <mxGeometry x="590" y="40" width="120" height="30" as="geometry" />
        </mxCell>
        <mxCell id="-YfhJL4qU9Dbgszy67ls-50" value="" style="shape=flexArrow;endArrow=classic;html=1;rounded=0;exitX=0.5;exitY=1;exitDx=0;exitDy=0;entryX=0.5;entryY=0;entryDx=0;entryDy=0;endWidth=11.944444444444445;endSize=7.055555555555555;width=8.055555555555555;strokeWidth=1.5;" edge="1" parent="1" target="-YfhJL4qU9Dbgszy67ls-38">
          <mxGeometry width="50" height="50" relative="1" as="geometry">
            <mxPoint x="530" y="230" as="sourcePoint" />
            <mxPoint x="590" y="260" as="targetPoint" />
          </mxGeometry>
        </mxCell>
        <mxCell id="-YfhJL4qU9Dbgszy67ls-66" value="" style="strokeColor=#dddddd;shadow=1;strokeWidth=1;rounded=1;absoluteArcSize=1;arcSize=2;" vertex="1" parent="1">
          <mxGeometry x="1020" y="495" width="250" height="90" as="geometry" />
        </mxCell>
        <mxCell id="-YfhJL4qU9Dbgszy67ls-67" value="App&#xa;Engine" style="editableCssRules=.*;html=1;fontColor=#999999;shape=image;verticalLabelPosition=middle;verticalAlign=middle;labelPosition=right;align=left;spacingLeft=20;part=1;points=[];imageAspect=0;image=data:image/svg+xml,PHN2ZyB4bWxucz0iaHR0cDovL3d3dy53My5vcmcvMjAwMC9zdmciIHhtbG5zOnY9Imh0dHBzOi8vdmVjdGEuaW8vbmFubyIgd2lkdGg9IjIwIiBoZWlnaHQ9IjE2LjAyMDAwMDQ1Nzc2MzY3MiIgZmlsbC1ydWxlPSJldmVub2RkIiB2aWV3Qm94PSI4Ljk0MDY5NjcxNjMwODU5NGUtOCAwIDIwIDE2LjAyMDAwMDQ1Nzc2MzY3MiI+JiN4YTsJPHN0eWxlIHR5cGU9InRleHQvY3NzIj4mI3hhOwkuc3Qwe2ZpbGw6IzQyODVmNDt9JiN4YTsJLnN0MXtmaWxsOiNhZWNiZmE7fSYjeGE7CS5zdDJ7ZmlsbDojNjY5ZGY2O30mI3hhOwk8L3N0eWxlPiYjeGE7CTxwYXRoIGNsYXNzPSJzdDAiIGQ9Ik0xMi4zIDcuMjZsLTEuMjIgMS4yMkExLjcxIDEuNzEgMCAwIDEgMTAgMTEuNDlhMS43NCAxLjc0IDAgMCAxLTEuMzMtLjY0bC0xLjIyIDEuMjJhMy40MyAzLjQzIDAgMCAwIDUuOTg0LTEuMzgxQTMuNDMgMy40MyAwIDAgMCAxMi4zIDcuMjZ6Ii8+JiN4YTsJPHBhdGggY2xhc3M9InN0MSIgZD0iTTEwIDMuNTJhNi4yNSA2LjI1IDAgMCAwIDAgMTIuNSA2LjI1IDYuMjUgMCAwIDAgMC0xMi41bTAgMTAuNzRhNC40NSA0LjQ1IDAgMCAxLTMuMTU3LTcuNTk3QTQuNDUgNC40NSAwIDAgMSAxNC40NCA5LjgyIDQuNDQgNC40NCAwIDAgMSAxMCAxNC4yNiIvPiYjeGE7CTxwYXRoIGNsYXNzPSJzdDIiIGQ9Ik0xOS42MiA5LjE2bC0yLjU2LS44MWE3LjEgNy4xIDAgMCAxIC4xNyAxLjUzIDcuNjIgNy42MiAwIDAgMS0uMDggMS4wOGgyLjQ3YS40NC40NCAwIDAgMCAuMzgtLjQydi0xYS40NC40NCAwIDAgMC0uMzgtLjQyTTEwIDIuNzhhNy40OCA3LjQ4IDAgMCAxIDEuNS4xNUwxMC41OC4zOGMtLjA3LS4yMi0uMjEtLjM4LS40Mi0uMzhoLS4zOGEuNDUuNDUgMCAwIDAtLjQyLjM4bC0uOCAyLjU0QTcuNjQgNy42NCAwIDAgMSAxMCAyLjc4bS03LjIzIDcuMWE3LjEgNy4xIDAgMCAxIC4xNy0xLjUzbC0yLjU2LjgxYS40NC40NCAwIDAgMC0uMzguNDJ2MWEuNDQuNDQgMCAwIDAgLjM4LjQyaDIuNDdhNy42MiA3LjYyIDAgMCAxLS4wOC0xLjA4Ii8+JiN4YTsJPHBhdGggY2xhc3M9InN0MSIgZD0iTTEwIDcuMjZhMi41IDIuNSAwIDEgMCAwIDUgMi41IDIuNSAwIDEgMCAwLTV6bTAgMy43NWExLjI1IDEuMjUgMCAxIDEgMC0yLjUgMS4yNSAxLjI1IDAgMCAxIDEuMjUgMS4yNUExLjI1IDEuMjUgMCAwIDEgMTAgMTEuMDJ6Ii8+JiN4YTs8L3N2Zz4=;movable=1;resizable=1;rotatable=1;deletable=1;editable=1;locked=0;connectable=1;" vertex="1" parent="-YfhJL4qU9Dbgszy67ls-66">
          <mxGeometry width="30" height="24" relative="1" as="geometry">
            <mxPoint x="15" y="18" as="offset" />
          </mxGeometry>
        </mxCell>
        <mxCell id="-YfhJL4qU9Dbgszy67ls-68" value="App&#xa;Engine" style="editableCssRules=.*;html=1;fontColor=#999999;shape=image;verticalLabelPosition=middle;verticalAlign=middle;labelPosition=right;align=left;spacingLeft=20;part=1;points=[];imageAspect=0;image=data:image/svg+xml,PHN2ZyB4bWxucz0iaHR0cDovL3d3dy53My5vcmcvMjAwMC9zdmciIHhtbG5zOnY9Imh0dHBzOi8vdmVjdGEuaW8vbmFubyIgd2lkdGg9IjIwIiBoZWlnaHQ9IjE2LjAyMDAwMDQ1Nzc2MzY3MiIgZmlsbC1ydWxlPSJldmVub2RkIiB2aWV3Qm94PSI4Ljk0MDY5NjcxNjMwODU5NGUtOCAwIDIwIDE2LjAyMDAwMDQ1Nzc2MzY3MiI+JiN4YTsJPHN0eWxlIHR5cGU9InRleHQvY3NzIj4mI3hhOwkuc3Qwe2ZpbGw6IzQyODVmNDt9JiN4YTsJLnN0MXtmaWxsOiNhZWNiZmE7fSYjeGE7CS5zdDJ7ZmlsbDojNjY5ZGY2O30mI3hhOwk8L3N0eWxlPiYjeGE7CTxwYXRoIGNsYXNzPSJzdDAiIGQ9Ik0xMi4zIDcuMjZsLTEuMjIgMS4yMkExLjcxIDEuNzEgMCAwIDEgMTAgMTEuNDlhMS43NCAxLjc0IDAgMCAxLTEuMzMtLjY0bC0xLjIyIDEuMjJhMy40MyAzLjQzIDAgMCAwIDUuOTg0LTEuMzgxQTMuNDMgMy40MyAwIDAgMCAxMi4zIDcuMjZ6Ii8+JiN4YTsJPHBhdGggY2xhc3M9InN0MSIgZD0iTTEwIDMuNTJhNi4yNSA2LjI1IDAgMCAwIDAgMTIuNSA2LjI1IDYuMjUgMCAwIDAgMC0xMi41bTAgMTAuNzRhNC40NSA0LjQ1IDAgMCAxLTMuMTU3LTcuNTk3QTQuNDUgNC40NSAwIDAgMSAxNC40NCA5LjgyIDQuNDQgNC40NCAwIDAgMSAxMCAxNC4yNiIvPiYjeGE7CTxwYXRoIGNsYXNzPSJzdDIiIGQ9Ik0xOS42MiA5LjE2bC0yLjU2LS44MWE3LjEgNy4xIDAgMCAxIC4xNyAxLjUzIDcuNjIgNy42MiAwIDAgMS0uMDggMS4wOGgyLjQ3YS40NC40NCAwIDAgMCAuMzgtLjQydi0xYS40NC40NCAwIDAgMC0uMzgtLjQyTTEwIDIuNzhhNy40OCA3LjQ4IDAgMCAxIDEuNS4xNUwxMC41OC4zOGMtLjA3LS4yMi0uMjEtLjM4LS40Mi0uMzhoLS4zOGEuNDUuNDUgMCAwIDAtLjQyLjM4bC0uOCAyLjU0QTcuNjQgNy42NCAwIDAgMSAxMCAyLjc4bS03LjIzIDcuMWE3LjEgNy4xIDAgMCAxIC4xNy0xLjUzbC0yLjU2LjgxYS40NC40NCAwIDAgMC0uMzguNDJ2MWEuNDQuNDQgMCAwIDAgLjM4LjQyaDIuNDdhNy42MiA3LjYyIDAgMCAxLS4wOC0xLjA4Ii8+JiN4YTsJPHBhdGggY2xhc3M9InN0MSIgZD0iTTEwIDcuMjZhMi41IDIuNSAwIDEgMCAwIDUgMi41IDIuNSAwIDEgMCAwLTV6bTAgMy43NWExLjI1IDEuMjUgMCAxIDEgMC0yLjUgMS4yNSAxLjI1IDAgMCAxIDEuMjUgMS4yNUExLjI1IDEuMjUgMCAwIDEgMTAgMTEuMDJ6Ii8+JiN4YTs8L3N2Zz4=;movable=1;resizable=1;rotatable=1;deletable=1;editable=1;locked=0;connectable=1;" vertex="1" parent="1">
          <mxGeometry x="1035" y="513" width="30" height="24" as="geometry" />
        </mxCell>
        <mxCell id="-YfhJL4qU9Dbgszy67ls-70" value="工程" style="rounded=0;whiteSpace=wrap;html=1;" vertex="1" parent="1">
          <mxGeometry x="1000" y="760" width="160" height="60" as="geometry" />
        </mxCell>
        <mxCell id="-YfhJL4qU9Dbgszy67ls-69" value="" style="shadow=0;dashed=0;html=1;strokeColor=none;fillColor=#4495D1;labelPosition=center;verticalLabelPosition=bottom;verticalAlign=top;align=center;outlineConnect=0;shape=mxgraph.veeam.2d.agent;pointerEvents=1;" vertex="1" parent="1">
          <mxGeometry x="1010" y="767.6" width="44.8" height="44.8" as="geometry" />
        </mxCell>
        <mxCell id="-YfhJL4qU9Dbgszy67ls-71" value="" style="shape=flexArrow;endArrow=classic;html=1;rounded=0;exitX=0.5;exitY=1;exitDx=0;exitDy=0;entryX=0.5;entryY=0;entryDx=0;entryDy=0;endWidth=11.944444444444445;endSize=7.055555555555555;width=8.055555555555555;strokeWidth=1.5;" edge="1" parent="1" source="-YfhJL4qU9Dbgszy67ls-38" target="-YfhJL4qU9Dbgszy67ls-17">
          <mxGeometry width="50" height="50" relative="1" as="geometry">
            <mxPoint x="540" y="240" as="sourcePoint" />
            <mxPoint x="540" y="280" as="targetPoint" />
          </mxGeometry>
        </mxCell>
        <mxCell id="-YfhJL4qU9Dbgszy67ls-84" value="" style="group" vertex="1" connectable="0" parent="1">
          <mxGeometry x="160" y="80" width="740" height="150" as="geometry" />
        </mxCell>
        <mxCell id="-YfhJL4qU9Dbgszy67ls-83" value="问题诊断/需求分析" style="rounded=0;whiteSpace=wrap;html=1;verticalAlign=top;fontSize=16;fontStyle=1;fillColor=none;" vertex="1" parent="-YfhJL4qU9Dbgszy67ls-84">
          <mxGeometry width="740" height="150" as="geometry" />
        </mxCell>
        <mxCell id="-YfhJL4qU9Dbgszy67ls-4" value="&lt;span style=&quot;color: rgb(56, 58, 66); font-size: 11.9px; text-align: start; white-space-collapse: preserve; background-color: rgb(255, 255, 255);&quot;&gt;&lt;b style=&quot;&quot;&gt;&lt;font face=&quot;Helvetica&quot;&gt;中交知识管理现状调研&lt;/font&gt;&lt;/b&gt;&lt;/span&gt;" style="swimlane;whiteSpace=wrap;html=1;fontStyle=0;startSize=20;strokeWidth=1.5;" vertex="1" parent="-YfhJL4qU9Dbgszy67ls-84">
          <mxGeometry x="40" y="40" width="260" height="90" as="geometry" />
        </mxCell>
        <mxCell id="-YfhJL4qU9Dbgszy67ls-5" value="碎片化知识繁多" style="rounded=1;whiteSpace=wrap;html=1;fontFamily=Helvetica;strokeWidth=1.5;" vertex="1" parent="-YfhJL4qU9Dbgszy67ls-4">
          <mxGeometry x="20" y="40" width="100" height="30" as="geometry" />
        </mxCell>
        <mxCell id="-YfhJL4qU9Dbgszy67ls-6" value="&lt;span style=&quot;color: rgb(56, 58, 66); font-size: 11.9px; text-align: start; white-space-collapse: preserve; background-color: rgb(255, 255, 255);&quot;&gt;隐性知识识别&lt;/span&gt;" style="rounded=1;whiteSpace=wrap;html=1;fontFamily=Helvetica;strokeWidth=1.5;" vertex="1" parent="-YfhJL4qU9Dbgszy67ls-4">
          <mxGeometry x="140" y="40" width="100" height="30" as="geometry" />
        </mxCell>
        <mxCell id="-YfhJL4qU9Dbgszy67ls-10" value="&lt;span style=&quot;color: rgb(56, 58, 66); font-size: 11.9px; text-align: start; white-space-collapse: preserve; background-color: rgb(255, 255, 255);&quot;&gt;&lt;b style=&quot;&quot;&gt;&lt;font face=&quot;Helvetica&quot;&gt;关键知识识别&lt;/font&gt;&lt;/b&gt;&lt;/span&gt;" style="swimlane;whiteSpace=wrap;html=1;fontStyle=0;startSize=20;strokeWidth=1.5;" vertex="1" parent="-YfhJL4qU9Dbgszy67ls-84">
          <mxGeometry x="340" y="40" width="360" height="90" as="geometry" />
        </mxCell>
        <mxCell id="-YfhJL4qU9Dbgszy67ls-14" value="&lt;div style=&quot;text-align: start;&quot;&gt;&lt;font color=&quot;#383a42&quot;&gt;&lt;span style=&quot;font-size: 11.9px; white-space-collapse: preserve; background-color: rgb(255, 255, 255);&quot;&gt;知识识别率&lt;/span&gt;&lt;/font&gt;&lt;/div&gt;" style="rounded=1;whiteSpace=wrap;html=1;fontFamily=Helvetica;strokeWidth=1.5;" vertex="1" parent="-YfhJL4qU9Dbgszy67ls-10">
          <mxGeometry x="20" y="40" width="100" height="30" as="geometry" />
        </mxCell>
        <mxCell id="-YfhJL4qU9Dbgszy67ls-15" value="&lt;div style=&quot;text-align: start;&quot;&gt;&lt;font color=&quot;#383a42&quot;&gt;&lt;span style=&quot;font-size: 11.9px; white-space-collapse: preserve; background-color: rgb(255, 255, 255);&quot;&gt;知识沉淀率&lt;/span&gt;&lt;/font&gt;&lt;/div&gt;" style="rounded=1;whiteSpace=wrap;html=1;fontFamily=Helvetica;strokeWidth=1.5;" vertex="1" parent="-YfhJL4qU9Dbgszy67ls-10">
          <mxGeometry x="140" y="40" width="90" height="30" as="geometry" />
        </mxCell>
        <mxCell id="-YfhJL4qU9Dbgszy67ls-16" value="&lt;div style=&quot;text-align: start;&quot;&gt;&lt;font color=&quot;#383a42&quot;&gt;&lt;span style=&quot;font-size: 11.9px; white-space-collapse: preserve; background-color: rgb(255, 255, 255);&quot;&gt;知识复用率&lt;/span&gt;&lt;/font&gt;&lt;/div&gt;" style="rounded=1;whiteSpace=wrap;html=1;fontFamily=Helvetica;strokeWidth=1.5;" vertex="1" parent="-YfhJL4qU9Dbgszy67ls-10">
          <mxGeometry x="250" y="40" width="90" height="30" as="geometry" />
        </mxCell>
        <mxCell id="-YfhJL4qU9Dbgszy67ls-85" value="" style="group" vertex="1" connectable="0" parent="1">
          <mxGeometry x="160" y="1080" width="740" height="160" as="geometry" />
        </mxCell>
        <mxCell id="-YfhJL4qU9Dbgszy67ls-73" value="典型企业/项目管理应用" style="rounded=0;whiteSpace=wrap;html=1;verticalAlign=top;fontSize=16;fontStyle=1;fillColor=none;" vertex="1" parent="-YfhJL4qU9Dbgszy67ls-85">
          <mxGeometry width="740" height="160" as="geometry" />
        </mxCell>
        <mxCell id="-YfhJL4qU9Dbgszy67ls-75" value="&lt;div style=&quot;text-align: start;&quot;&gt;&lt;span style=&quot;color: rgb(56, 58, 66); font-size: 11.9px; white-space-collapse: preserve; background-color: rgb(255, 255, 255);&quot;&gt;工程设计&lt;/span&gt;&lt;/div&gt;" style="rounded=1;whiteSpace=wrap;html=1;fontFamily=Helvetica;strokeWidth=1.5;" vertex="1" parent="-YfhJL4qU9Dbgszy67ls-85">
          <mxGeometry x="40" y="40" width="120" height="40" as="geometry" />
        </mxCell>
        <mxCell id="-YfhJL4qU9Dbgszy67ls-76" value="&lt;div style=&quot;text-align: start;&quot;&gt;&lt;span style=&quot;color: rgb(56, 58, 66); font-size: 11.9px; white-space-collapse: preserve; background-color: rgb(255, 255, 255);&quot;&gt;工程施工&lt;/span&gt;&lt;/div&gt;" style="rounded=1;whiteSpace=wrap;html=1;fontFamily=Helvetica;strokeWidth=1.5;" vertex="1" parent="-YfhJL4qU9Dbgszy67ls-85">
          <mxGeometry x="220" y="40" width="120" height="40" as="geometry" />
        </mxCell>
        <mxCell id="-YfhJL4qU9Dbgszy67ls-77" value="&lt;div style=&quot;text-align: start;&quot;&gt;&lt;span style=&quot;color: rgb(56, 58, 66); font-size: 11.9px; white-space-collapse: preserve; background-color: rgb(255, 255, 255);&quot;&gt;工程运维&lt;/span&gt;&lt;/div&gt;" style="rounded=1;whiteSpace=wrap;html=1;fontFamily=Helvetica;strokeWidth=1.5;" vertex="1" parent="-YfhJL4qU9Dbgszy67ls-85">
          <mxGeometry x="400" y="40" width="120" height="40" as="geometry" />
        </mxCell>
        <mxCell id="-YfhJL4qU9Dbgszy67ls-78" value="&lt;div style=&quot;text-align: start;&quot;&gt;&lt;span style=&quot;color: rgb(56, 58, 66); font-size: 11.9px; white-space-collapse: preserve; background-color: rgb(255, 255, 255);&quot;&gt;供应链协同&lt;/span&gt;&lt;/div&gt;" style="rounded=1;whiteSpace=wrap;html=1;fontFamily=Helvetica;strokeWidth=1.5;" vertex="1" parent="-YfhJL4qU9Dbgszy67ls-85">
          <mxGeometry x="580" y="40" width="120" height="40" as="geometry" />
        </mxCell>
        <mxCell id="-YfhJL4qU9Dbgszy67ls-79" value="&lt;div style=&quot;text-align: start;&quot;&gt;&lt;span style=&quot;color: rgb(56, 58, 66); font-size: 11.9px; white-space-collapse: preserve; background-color: rgb(255, 255, 255);&quot;&gt;成本进度管理&lt;/span&gt;&lt;/div&gt;" style="rounded=1;whiteSpace=wrap;html=1;fontFamily=Helvetica;strokeWidth=1.5;" vertex="1" parent="-YfhJL4qU9Dbgszy67ls-85">
          <mxGeometry x="40" y="100" width="120" height="40" as="geometry" />
        </mxCell>
        <mxCell id="-YfhJL4qU9Dbgszy67ls-80" value="&lt;div style=&quot;text-align: start;&quot;&gt;&lt;span style=&quot;color: rgb(56, 58, 66); font-size: 11.9px; white-space-collapse: preserve; background-color: rgb(255, 255, 255);&quot;&gt;质量安全管理&lt;/span&gt;&lt;/div&gt;" style="rounded=1;whiteSpace=wrap;html=1;fontFamily=Helvetica;strokeWidth=1.5;" vertex="1" parent="-YfhJL4qU9Dbgszy67ls-85">
          <mxGeometry x="220" y="100" width="120" height="40" as="geometry" />
        </mxCell>
        <mxCell id="-YfhJL4qU9Dbgszy67ls-81" value="&lt;div style=&quot;text-align: start;&quot;&gt;&lt;span style=&quot;color: rgb(56, 58, 66); font-size: 11.9px; white-space-collapse: preserve; background-color: rgb(255, 255, 255);&quot;&gt;风险控制&lt;/span&gt;&lt;/div&gt;" style="rounded=1;whiteSpace=wrap;html=1;fontFamily=Helvetica;strokeWidth=1.5;" vertex="1" parent="-YfhJL4qU9Dbgszy67ls-85">
          <mxGeometry x="400" y="100" width="120" height="40" as="geometry" />
        </mxCell>
        <mxCell id="-YfhJL4qU9Dbgszy67ls-82" value="&lt;div style=&quot;text-align: start;&quot;&gt;&lt;span style=&quot;color: rgb(56, 58, 66); font-size: 11.9px; white-space-collapse: preserve; background-color: rgb(255, 255, 255);&quot;&gt;项目综合评价&lt;/span&gt;&lt;/div&gt;" style="rounded=1;whiteSpace=wrap;html=1;fontFamily=Helvetica;strokeWidth=1.5;" vertex="1" parent="-YfhJL4qU9Dbgszy67ls-85">
          <mxGeometry x="580" y="100" width="120" height="40" as="geometry" />
        </mxCell>
        <mxCell id="-YfhJL4qU9Dbgszy67ls-86" value="" style="rounded=0;whiteSpace=wrap;html=1;" vertex="1" parent="1">
          <mxGeometry x="160" y="980" width="120" height="60" as="geometry" />
        </mxCell>
      </root>
    </mxGraphModel>
  </diagram>
</mxfile>
